{"title":"Runner Runner 2013 CAM XviD-VAiN","uid":9106566,"size":1491210435,"categoryP":"video","categoryS":"movies","magnet":"?xt=urn:btih:95ce2691d51ca229d0a307d3046de356d38a1773&amp;dn=Runner+Runner+2013+CAM+XviD-VAiN&amp;tr=udp%3A%2F%2Ftracker.openbittorrent.com%3A80&amp;tr=udp%3A%2F%2Fopen.demonii.com%3A1337&amp;tr=udp%3A%2F%2Ftracker.coppersurfer.tk%3A6969&amp;tr=udp%3A%2F%2Fexodus.desync.com%3A6969","seeders":1,"leechers":0,"uploader":"TeX","files":4,"time":1382890625,"description":"[IMG]http://i.imgur.com/GFbrrb7.jpg[/IMG]\n\nVAiN . P R E S E N T S . . .\n\nRunner.Runner.2013.CAM.XviD-VAiN\n\niMDB........: http://www.imdb.com/title/tt2364841/\nPLOT........: When a poor college student who cracks an online poker game goes bust, he arranges a face-to-face with the man he thinks cheated him, a sly offshore entrepreneur.\n\nT E C H N i C A L . i N F O . . .      \nGeneral\nFormat                                   : AVI\nFormat/Info                              : Audio Video Interleave\nFile size                                : 1.37 GiB\nDuration                                 : 1h 25mn\nOverall bit rate                         : 2 302 Kbps\nWriting application                      : VirtualDubMod 1.5.10.2 (build 2540/release)\nWriting library                          : VirtualDubMod build 2540/release\n\nVideo\nID                                       : 0\nFormat                                   : MPEG-4 Visual\nFormat profile                           : Advanced Simple@L5\nFormat settings, BVOP                    : 1\nFormat settings, QPel                    : No\nFormat settings, GMC                     : No warppoints\nFormat settings, Matrix                  : Default (MPEG)\nCodec ID                                 : XVID\nCodec ID/Hint                            : XviD\nDuration                                 : 1h 25mn\nBit rate                                 : 2 163 Kbps\nWidth                                    : 720 pixels\nHeight                                   : 338 pixels\nDisplay aspect ratio                     : 2.130\nFrame rate                               : 29.970 fps\nColor space                              : YUV\nChroma subsampling                       : 4:2:0\nBit depth                                : 8 bits\nScan type                                : Progressive\nCompression mode                         : Lossy\nBits/(Pixel*Frame)                       : 0.297\nStream size                              : 1.29 GiB (94%)\nWriting library                          : XviD 1.2.1 (UTC 2008-12-04)\n\nAudio\nID                                       : 1\nFormat                                   : MPEG Audio\nFormat version                           : Version 1\nFormat profile                           : Layer 3\nMode                                     : Joint stereo\nMode extension                           : MS Stereo\nCodec ID                                 : 55\nCodec ID/Hint                            : MP3\nDuration                                 : 1h 25mn\nBit rate mode                            : Constant\nBit rate                                 : 128 Kbps\nChannel(s)                               : 2 channels\nSampling rate                            : 48.0 KHz\nCompression mode                         : Lossy\nStream size                              : 78.2 MiB (6%)\nAlignment                                : Aligned on interleaves\nInterleave, duration                     : 33 ms (1.00 video frame)\n\n\n\n\n\n\n\nE N C O D E R S . N O T E S . . .       \n\nSOURCE......: \nSAMPLE......: Yes\nADDED NOTE..:  \n\nvideo was meh. seen lots of red as well as fooked whites. added little denoise, sharp, levels tweaked some rgb. too stoned tonite to git into all that was done but dAMN~~~ this looks sexy.  \n\nas for audio, it's cam so took source eq'ed, adjusted levels and made voice's better to hear. \n\nv.6a.4 m.5 nothing we haven't seen b4\n\n\nS C R E E N . S H O T S . . .\n\n[IMG]http://i.imgur.com/X4Tkvkj.png[/IMG]\n\n[IMG]http://i.imgur.com/XlbCbZR.png[/IMG]\n\n[IMG]http://i.imgur.com/PrDieav.png[/IMG]\n\n[IMG]http://i.imgur.com/4KrnvXN.png[/IMG]\n\n[IMG]http://i.imgur.com/BGCzi6X.png[/IMG]\n\n[IMG]http://i.imgur.com/sUF8mnF.png[/IMG]\n\n\nGREETZ:\n\nW4NTED worthy rival grps to add here. ;) SUCKAS!!!!!!!\n","torrent":{"xt":"urn:btih:95ce2691d51ca229d0a307d3046de356d38a1773","amp;dn":"Runner+Runner+2013+CAM+XviD-VAiN","amp;tr":["udp%3A%2F%2Ftracker.openbittorrent.com%3A80","udp%3A%2F%2Fopen.demonii.com%3A1337","udp%3A%2F%2Ftracker.coppersurfer.tk%3A6969","udp%3A%2F%2Fexodus.desync.com%3A6969"],"infoHash":"95ce2691d51ca229d0a307d3046de356d38a1773","infoHashBuffer":{"type":"Buffer","data":[149,206,38,145,213,28,162,41,208,163,7,211,4,109,227,86,211,138,23,115]},"announce":[],"urlList":[]}}